<?xml version="1.0" encoding="utf-8"?>
<!-- Generator: Adobe Illustrator 16.0.4, SVG Export Plug-In . SVG Version: 6.00 Build 0)  -->
<!DOCTYPE svg PUBLIC "-//W3C//DTD SVG 1.1//EN" "http://www.w3.org/Graphics/SVG/1.1/DTD/svg11.dtd">
<svg version="1.1" id="Layer_1" xmlns="http://www.w3.org/2000/svg" xmlns:xlink="http://www.w3.org/1999/xlink" x="0px" y="0px"
	 width="1280px" height="800px" viewBox="0 0 1280 800" enable-background="new 0 0 1280 800" xml:space="preserve">
<rect x="0" y="0" fill="none" width="1280" height="800"/>
<g>
	<g>
		<path vector-effect="non-scaling-stroke" fill="#C3C3C3" d="M1035.795,147.44c134.116,0,242.843,109.002,242.843,243.461
			c0,134.464-108.727,243.462-242.843,243.462c-134.12,0-242.842-108.998-242.842-243.462
			C792.953,256.442,901.675,147.44,1035.795,147.44z"/>
		<path vector-effect="non-scaling-stroke" fill="#C3C3C3" d="M748.35,0c134.116,0,242.842,109.002,242.842,243.461
			c0,134.464-108.726,243.461-242.842,243.461c-134.121,0-242.842-108.997-242.842-243.461C505.508,109.002,614.229,0,748.35,0z"/>
		<path vector-effect="non-scaling-stroke" fill="#C3C3C3" d="M252.754,213.106c139.59,0,252.754,94.304,252.754,210.628
			c0,116.33-113.164,210.629-252.754,210.629C113.16,634.363,0,540.064,0,423.734C0,307.41,113.16,213.106,252.754,213.106z"/>
		<path vector-effect="non-scaling-stroke" fill="#C3C3C3" d="M426.213,74.339c134.116,0,242.842,109.002,242.842,243.461
			c0,134.465-108.727,243.462-242.842,243.462c-134.121,0-242.842-108.997-242.842-243.462
			C183.371,183.342,292.092,74.339,426.213,74.339z"/>
		<path vector-effect="non-scaling-stroke" fill="#C3C3C3" d="M628.168,147.44c134.115,0,242.842,109.002,242.842,243.461
			c0,134.464-108.727,243.462-242.842,243.462c-134.121,0-242.842-108.998-242.842-243.462
			C385.326,256.442,494.047,147.44,628.168,147.44z"/>
		<path fill="#C3C3C3" d="M255.048,413.822h727.655c39.561,0,71.677,32.117,71.677,71.683v77.186
			c0,39.561-32.116,71.673-71.677,71.673H255.048c-39.565,0-71.677-32.112-71.677-71.673v-77.186
			C183.371,445.939,215.483,413.822,255.048,413.822z"/>
	</g>
</g>
</svg>
