<?xml version="1.0" encoding="utf-8"?>
<!-- Generator: Adobe Illustrator 16.0.4, SVG Export Plug-In . SVG Version: 6.00 Build 0)  -->
<!DOCTYPE svg PUBLIC "-//W3C//DTD SVG 1.1//EN" "http://www.w3.org/Graphics/SVG/1.1/DTD/svg11.dtd">
<svg version="1.1" id="Layer_1" xmlns="http://www.w3.org/2000/svg" xmlns:xlink="http://www.w3.org/1999/xlink" x="0px" y="0px"
	 width="1280px" height="800px" viewBox="0 0 1280 800" enable-background="new 0 0 1280 800" xml:space="preserve">
<rect x="0" y="0" fill="none" width="1280" height="800"/>
<g>
	<g>
		<path vector-effect="non-scaling-stroke" fill="#FFFFFF" d="M245.245,195.287c135.443,0,245.244,104.717,245.244,233.891
			c0,129.177-109.8,233.89-245.244,233.89C109.796,663.067,0,558.354,0,429.177C0,300.004,109.796,195.287,245.245,195.287z"/>
		<path vector-effect="non-scaling-stroke" fill="#FFFFFF" d="M422.365,68.123c135.444,0,245.244,104.717,245.244,233.891
			c0,129.177-109.8,233.889-245.244,233.889c-135.449,0-245.245-104.712-245.245-233.889
			C177.121,172.841,286.917,68.123,422.365,68.123z"/>
		<path vector-effect="non-scaling-stroke" fill="#FFFFFF" d="M522.28,195.287c135.444,0,245.244,104.717,245.244,233.891
			c0,129.177-109.8,233.89-245.244,233.89c-135.448,0-245.244-104.713-245.244-233.89
			C277.035,300.004,386.831,195.287,522.28,195.287z"/>
		<path vector-effect="non-scaling-stroke" fill="#FFFFFF" d="M708.484,0C843.927,0,953.728,104.718,953.728,233.89
			c0,129.177-109.801,233.891-245.244,233.891c-135.449,0-245.244-104.714-245.244-233.891C463.24,104.718,573.035,0,708.484,0z"/>
		<path vector-effect="non-scaling-stroke" fill="#FFFFFF" d="M885.605,195.287c135.444,0,245.243,104.717,245.243,233.891
			c0,129.177-109.799,233.89-245.243,233.89c-135.449,0-245.245-104.713-245.245-233.89
			C640.36,300.004,750.156,195.287,885.605,195.287z"/>
		<path vector-effect="non-scaling-stroke" fill="#FFFFFF" d="M1035.476,195.287c135.444,0,245.244,104.717,245.244,233.891
			c0,129.177-109.8,233.89-245.244,233.89c-135.448,0-245.245-104.713-245.245-233.89
			C790.231,300.004,900.028,195.287,1035.476,195.287z"/>
		<path fill="#FFFFFF" d="M255.463,465.51h728.92c55.768,0,101.05,45.283,101.05,101.05l0,0c0,55.771-45.282,101.05-101.05,101.05
			h-728.92c-55.772,0-101.05-45.278-101.05-101.05l0,0C154.413,510.793,199.691,465.51,255.463,465.51z"/>
	</g>
</g>
</svg>
