<?xml version="1.0" encoding="utf-8"?>
<!-- Generator: Adobe Illustrator 16.0.4, SVG Export Plug-In . SVG Version: 6.00 Build 0)  -->
<!DOCTYPE svg PUBLIC "-//W3C//DTD SVG 1.1//EN" "http://www.w3.org/Graphics/SVG/1.1/DTD/svg11.dtd">
<svg version="1.1" id="Layer_1" xmlns="http://www.w3.org/2000/svg" xmlns:xlink="http://www.w3.org/1999/xlink" x="0px" y="0px"
	 width="1280px" height="800px" viewBox="0 0 1280 800" enable-background="new 0 0 1280 800" xml:space="preserve">
<rect x="0" y="0" fill="none" width="1280" height="800"/>
<g>
	<g>
		<path vector-effect="non-scaling-stroke" fill="#C3C3C3" d="M245.244,195.286c135.444,0,245.244,104.718,245.244,233.89
			c0,129.178-109.8,233.891-245.244,233.891C109.796,663.067,0,558.354,0,429.177C0,300.004,109.796,195.286,245.244,195.286z"/>
		<path vector-effect="non-scaling-stroke" fill="#C3C3C3" d="M422.365,68.123c135.444,0,245.245,104.718,245.245,233.89
			c0,129.177-109.8,233.89-245.245,233.89c-135.448,0-245.244-104.713-245.244-233.89
			C177.121,172.841,286.917,68.123,422.365,68.123z"/>
		<path vector-effect="non-scaling-stroke" fill="#C3C3C3" d="M522.28,195.286c135.443,0,245.244,104.718,245.244,233.89
			c0,129.178-109.801,233.891-245.244,233.891c-135.449,0-245.244-104.713-245.244-233.891
			C277.035,300.004,386.831,195.286,522.28,195.286z"/>
		<path vector-effect="non-scaling-stroke" fill="#C3C3C3" d="M708.484,0c135.443,0,245.244,104.717,245.244,233.89
			c0,129.177-109.801,233.89-245.244,233.89c-135.449,0-245.245-104.713-245.245-233.89C463.239,104.717,573.035,0,708.484,0z"/>
		<path vector-effect="non-scaling-stroke" fill="#C3C3C3" d="M885.604,195.286c135.444,0,245.244,104.718,245.244,233.89
			c0,129.178-109.8,233.891-245.244,233.891c-135.448,0-245.244-104.713-245.244-233.891
			C640.36,300.004,750.156,195.286,885.604,195.286z"/>
		<path vector-effect="non-scaling-stroke" fill="#C3C3C3" d="M1035.476,195.286c135.443,0,245.243,104.718,245.243,233.89
			c0,129.178-109.8,233.891-245.243,233.891c-135.449,0-245.244-104.713-245.244-233.891
			C790.232,300.004,900.027,195.286,1035.476,195.286z"/>
		<path fill="#C3C3C3" d="M255.463,465.51h728.92c55.767,0,101.05,45.282,101.05,101.049l0,0
			c0,55.772-45.283,101.051-101.05,101.051h-728.92c-55.772,0-101.05-45.278-101.05-101.051l0,0
			C154.413,510.792,199.691,465.51,255.463,465.51z"/>
	</g>
</g>
</svg>
