<?xml version="1.0" encoding="utf-8"?>
<!-- Generator: Adobe Illustrator 16.0.4, SVG Export Plug-In . SVG Version: 6.00 Build 0)  -->
<!DOCTYPE svg PUBLIC "-//W3C//DTD SVG 1.1//EN" "http://www.w3.org/Graphics/SVG/1.1/DTD/svg11.dtd">
<svg version="1.1" id="Layer_1" xmlns="http://www.w3.org/2000/svg" xmlns:xlink="http://www.w3.org/1999/xlink" x="0px" y="0px"
	 width="1280px" height="800px" viewBox="0 0 1280 800" enable-background="new 0 0 1280 800" xml:space="preserve">
<rect x="0" y="0" fill="none" width="1280" height="800"/>
<g>
	<g opacity="0.79">
		<path vector-effect="non-scaling-stroke" fill="#FFFFFF" d="M1039.124,147.913c134.547,0,243.622,109.353,243.622,244.244
			c0,134.896-109.075,244.244-243.622,244.244c-134.552,0-243.622-109.348-243.622-244.244
			C795.502,257.266,904.573,147.913,1039.124,147.913z"/>
		<path vector-effect="non-scaling-stroke" fill="#FFFFFF" d="M750.755,0c134.547,0,243.622,109.353,243.622,244.244
			c0,134.896-109.075,244.244-243.622,244.244c-134.552,0-243.623-109.348-243.623-244.244C507.133,109.352,616.203,0,750.755,0z"/>
		<path vector-effect="non-scaling-stroke" fill="#FFFFFF" d="M253.567,213.791c140.038,0,253.566,94.607,253.566,211.305
			c0,116.704-113.528,211.306-253.566,211.306C113.523,636.401,0,541.8,0,425.095C0,308.398,113.523,213.791,253.567,213.791z"/>
		<path vector-effect="non-scaling-stroke" fill="#FFFFFF" d="M427.582,74.578c134.547,0,243.623,109.353,243.623,244.244
			c0,134.896-109.076,244.244-243.623,244.244c-134.552,0-243.622-109.348-243.622-244.244
			C183.96,183.93,293.031,74.578,427.582,74.578z"/>
		<path vector-effect="non-scaling-stroke" fill="#FFFFFF" d="M630.187,147.913c134.547,0,243.622,109.353,243.622,244.244
			c0,134.896-109.075,244.244-243.622,244.244c-134.552,0-243.623-109.348-243.623-244.244
			C386.564,257.266,495.635,147.913,630.187,147.913z"/>
		<path fill="#FFFFFF" d="M255.868,415.152h729.989c39.692,0,71.912,32.221,71.912,71.913v77.433
			c0,39.688-32.22,71.903-71.912,71.903H255.868c-39.693,0-71.908-32.216-71.908-71.903v-77.433
			C183.96,447.373,216.175,415.152,255.868,415.152z"/>
	</g>
</g>
</svg>
