<?xml version="1.0" encoding="utf-8"?>
<!-- Generator: Adobe Illustrator 16.0.4, SVG Export Plug-In . SVG Version: 6.00 Build 0)  -->
<!DOCTYPE svg PUBLIC "-//W3C//DTD SVG 1.1//EN" "http://www.w3.org/Graphics/SVG/1.1/DTD/svg11.dtd">
<svg version="1.1" id="Layer_1" xmlns="http://www.w3.org/2000/svg" xmlns:xlink="http://www.w3.org/1999/xlink" x="0px" y="0px"
	 width="1280px" height="800px" viewBox="0 0 1280 800" enable-background="new 0 0 1280 800" xml:space="preserve">
<rect x="0" y="0" fill="none" width="1280" height="800"/>
<rect x="0" y="-0.001" fill="#61DFFF" width="1280" height="800"/>
<path fill="#09FF09" d="M914.072,721.129l-81.807-50.235c-5.646-3.466-13.04-1.698-16.506,3.946L658.774,930.485
	c-3.466,5.646-1.697,13.04,3.946,16.506l81.807,50.235c5.646,3.466,13.04,1.697,16.506-3.946l156.985-255.646
	C921.484,731.988,919.716,724.594,914.072,721.129z"/>
<g>
	<g>
		<path fill="#7D0000" d="M892,748h4.155c1.019,0,1.845,0.826,1.845,1.845v11.312c0,1.019-0.826,1.843-1.845,1.843H892
			c-1.018,0-1.844-0.824-1.844-1.843v-11.312C890.156,748.826,890.984,748,892,748z"/>
		<path fill="#00C600" d="M894.24,698L894.24,698c4.834,0,8.76,3.97,8.76,8.855v35.29c0,4.887-3.926,8.854-8.76,8.854l0,0
			c-4.833,0-8.757-3.968-8.757-8.854v-35.29C885.485,701.969,889.407,698,894.24,698z"/>
	</g>
</g>
<ellipse vector-effect="non-scaling-stroke" fill="#09FF09" cx="984.5" cy="790.5" rx="208.5" ry="196.5"/>
<ellipse vector-effect="non-scaling-stroke" fill="#09FF09" cx="-235.242" cy="840.5" rx="312" ry="299"/>
<path fill="#09FF09" d="M1135.517,670.58l-79.355,54.025c-5.475,3.729-6.894,11.198-3.166,16.673l168.83,247.984
	c3.729,5.475,11.198,6.894,16.673,3.167l79.355-54.026c5.474-3.727,6.893-11.198,3.166-16.673l-168.831-247.984
	C1148.462,668.271,1140.99,666.853,1135.517,670.58z"/>
<path fill="#09FF09" d="M26.417,702.08l-79.355,54.025c-5.474,3.729-6.893,11.198-3.166,16.673l168.831,247.984
	c3.729,5.475,11.197,6.894,16.672,3.167l79.355-54.026c5.475-3.727,6.893-11.198,3.166-16.673L43.09,705.246
	C39.363,699.771,31.892,698.353,26.417,702.08z"/>
<g>
	<g>
		<path fill="#7D0000" d="M1039.916,780.5h4.155c1.019,0,1.845,0.826,1.845,1.845v11.312c0,1.019-0.826,1.843-1.845,1.843h-4.155
			c-1.018,0-1.844-0.824-1.844-1.843v-11.312C1038.073,781.326,1038.9,780.5,1039.916,780.5z"/>
		<path fill="#00C600" d="M1042.156,730.5L1042.156,730.5c4.834,0,8.76,3.97,8.76,8.855v35.29c0,4.887-3.926,8.854-8.76,8.854l0,0
			c-4.833,0-8.758-3.968-8.758-8.854v-35.29C1033.4,734.469,1037.323,730.5,1042.156,730.5z"/>
	</g>
</g>
<g>
	<g>
		<path fill="#7D0000" d="M22.243,748h4.154c1.02,0,1.845,0.826,1.845,1.845v11.312c0,1.019-0.825,1.843-1.845,1.843h-4.154
			c-1.019,0-1.845-0.824-1.845-1.843v-11.312C20.4,748.826,21.226,748,22.243,748z"/>
		<path fill="#00C600" d="M24.485,698L24.485,698c4.833,0,8.759,3.97,8.759,8.855v35.29c0,4.887-3.926,8.854-8.759,8.854l0,0
			c-4.834,0-8.758-3.968-8.758-8.854v-35.29C15.727,701.969,19.651,698,24.485,698z"/>
	</g>
</g>
<g>
	<g>
		<path fill="#7D0000" d="M1151.95,772.5h4.157c1.018,0,1.842,0.826,1.842,1.845v11.312c0,1.019-0.824,1.843-1.842,1.843h-4.157
			c-1.017,0-1.842-0.824-1.842-1.843v-11.312C1150.11,773.326,1150.935,772.5,1151.95,772.5z"/>
		<path fill="#00C600" d="M1154.194,722.5L1154.194,722.5c4.833,0,8.757,3.97,8.757,8.855v35.29c0,4.887-3.924,8.854-8.757,8.854
			l0,0c-4.834,0-8.758-3.968-8.758-8.854v-35.29C1145.436,726.469,1149.36,722.5,1154.194,722.5z"/>
	</g>
</g>
<g>
	<g>
		<path fill="#7D0000" d="M999.343,625.859h4.155c1.018,0,1.844,0.825,1.844,1.843v11.314c0,1.017-0.826,1.843-1.844,1.843h-4.155
			c-1.019,0-1.843-0.826-1.843-1.843v-11.314C997.5,626.684,998.324,625.859,999.343,625.859z"/>
		<path fill="#00C600" d="M1001.584,575.859L1001.584,575.859c4.834,0,8.758,3.968,8.758,8.855v35.289
			c0,4.888-3.924,8.854-8.758,8.854l0,0c-4.834,0-8.759-3.968-8.759-8.854v-35.289C992.825,579.827,996.75,575.859,1001.584,575.859
			z"/>
	</g>
</g>
<g>
	<g>
		<path fill="#7D0000" d="M57.001,782.5h4.156c1.017,0,1.843,0.826,1.843,1.845v11.312c0,1.019-0.826,1.843-1.843,1.843h-4.156
			c-1.019,0-1.843-0.824-1.843-1.843v-11.312C55.158,783.326,55.984,782.5,57.001,782.5z"/>
		<path fill="#00C600" d="M59.242,732.5L59.242,732.5c4.834,0,8.758,3.97,8.758,8.855v35.29c0,4.887-3.924,8.854-8.758,8.854l0,0
			c-4.833,0-8.759-3.968-8.759-8.854v-35.29C50.485,736.469,54.409,732.5,59.242,732.5z"/>
	</g>
</g>
<g>
	<g>
		<path fill="#7D0000" d="M1086.825,690.859h4.157c1.018,0,1.843,0.825,1.843,1.843v11.314c0,1.017-0.825,1.843-1.843,1.843h-4.157
			c-1.017,0-1.842-0.826-1.842-1.843v-11.314C1084.985,691.684,1085.81,690.859,1086.825,690.859z"/>
		<path fill="#00C600" d="M1089.069,640.859L1089.069,640.859c4.833,0,8.758,3.968,8.758,8.855v35.289
			c0,4.888-3.925,8.854-8.758,8.854l0,0c-4.834,0-8.758-3.968-8.758-8.854v-35.289
			C1080.311,644.827,1084.235,640.859,1089.069,640.859z"/>
	</g>
</g>
<g>
	<g>
		<path fill="#7D0000" d="M1104.343,763.859h4.155c1.018,0,1.844,0.825,1.844,1.843v11.314c0,1.017-0.826,1.843-1.844,1.843h-4.155
			c-1.019,0-1.843-0.826-1.843-1.843v-11.314C1102.5,764.684,1103.324,763.859,1104.343,763.859z"/>
		<path fill="#00C600" d="M1106.584,713.859L1106.584,713.859c4.834,0,8.758,3.968,8.758,8.855v35.289
			c0,4.888-3.924,8.854-8.758,8.854l0,0c-4.834,0-8.759-3.968-8.759-8.854v-35.289
			C1097.825,717.827,1101.75,713.859,1106.584,713.859z"/>
	</g>
</g>
<g>
	<g>
		<path fill="#7D0000" d="M794.143,755.859h4.156c1.018,0,1.843,0.825,1.843,1.843v11.314c0,1.017-0.825,1.843-1.843,1.843h-4.156
			c-1.018,0-1.843-0.826-1.843-1.843v-11.314C792.3,756.684,793.125,755.859,794.143,755.859z"/>
		<path fill="#00C600" d="M796.385,705.859L796.385,705.859c4.833,0,8.757,3.968,8.757,8.855v35.289
			c0,4.888-3.924,8.854-8.757,8.854l0,0c-4.834,0-8.758-3.968-8.758-8.854v-35.289C787.627,709.827,791.551,705.859,796.385,705.859
			z"/>
	</g>
</g>
<g>
	<g>
		<path fill="#7D0000" d="M856,763.859h4.155c1.019,0,1.845,0.825,1.845,1.843v11.314c0,1.017-0.826,1.843-1.845,1.843H856
			c-1.018,0-1.844-0.826-1.844-1.843v-11.314C854.156,764.684,854.984,763.859,856,763.859z"/>
		<path fill="#00C600" d="M858.24,713.859L858.24,713.859c4.834,0,8.76,3.968,8.76,8.855v35.289c0,4.888-3.926,8.854-8.76,8.854l0,0
			c-4.833,0-8.757-3.968-8.757-8.854v-35.289C849.485,717.827,853.407,713.859,858.24,713.859z"/>
	</g>
</g>
<g>
	<g>
		<path fill="#7D0000" d="M900.759,707.5h4.154c1.019,0,1.845,0.826,1.845,1.845v11.312c0,1.019-0.826,1.843-1.845,1.843h-4.154
			c-1.019,0-1.844-0.824-1.844-1.843v-11.312C898.916,708.326,899.74,707.5,900.759,707.5z"/>
		<path fill="#00C600" d="M903,657.5L903,657.5c4.831,0,8.758,3.97,8.758,8.855v35.29c0,4.887-3.927,8.854-8.758,8.854l0,0
			c-4.834,0-8.76-3.968-8.76-8.854v-35.29C894.24,661.469,898.166,657.5,903,657.5z"/>
	</g>
</g>
<g>
	<g>
		<path fill="#7D0000" d="M851.516,675h4.157c1.017,0,1.842,0.826,1.842,1.845v11.312c0,1.019-0.825,1.843-1.842,1.843h-4.157
			c-1.019,0-1.843-0.824-1.843-1.843v-11.312C849.673,675.826,850.497,675,851.516,675z"/>
		<path fill="#00C600" d="M853.758,625L853.758,625c4.833,0,8.757,3.97,8.757,8.855v35.29c0,4.887-3.924,8.854-8.757,8.854l0,0
			c-4.834,0-8.758-3.968-8.758-8.854v-35.29C845,628.969,848.924,625,853.758,625z"/>
	</g>
</g>
<g>
	<g>
		<path fill="#7D0000" d="M936.858,652.5h4.156c1.017,0,1.843,0.826,1.843,1.845v11.312c0,1.019-0.826,1.843-1.843,1.843h-4.156
			c-1.017,0-1.843-0.824-1.843-1.843v-11.312C935.015,653.326,935.841,652.5,936.858,652.5z"/>
		<path fill="#00C600" d="M939.1,602.5L939.1,602.5c4.833,0,8.757,3.97,8.757,8.855v35.29c0,4.887-3.924,8.854-8.757,8.854l0,0
			c-4.834,0-8.758-3.968-8.758-8.854v-35.29C930.342,606.469,934.266,602.5,939.1,602.5z"/>
	</g>
</g>
<g>
	<g>
		<path fill="#7D0000" d="M977.175,736.5h4.157c1.017,0,1.843,0.826,1.843,1.845v11.312c0,1.019-0.826,1.843-1.843,1.843h-4.157
			c-1.019,0-1.843-0.824-1.843-1.843v-11.312C975.332,737.326,976.156,736.5,977.175,736.5z"/>
		<path fill="#00C600" d="M979.416,686.5L979.416,686.5c4.834,0,8.759,3.97,8.759,8.855v35.29c0,4.887-3.925,8.854-8.759,8.854l0,0
			c-4.834,0-8.759-3.968-8.759-8.854v-35.29C970.657,690.469,974.582,686.5,979.416,686.5z"/>
	</g>
</g>
<g>
	<g>
		<path fill="#7D0000" d="M934.486,761.359h4.156c1.017,0,1.843,0.826,1.843,1.843v11.314c0,1.017-0.826,1.843-1.843,1.843h-4.156
			c-1.017,0-1.843-0.826-1.843-1.843v-11.314C932.643,762.185,933.469,761.359,934.486,761.359z"/>
		<path fill="#00C600" d="M936.727,711.359L936.727,711.359c4.833,0,8.758,3.968,8.758,8.855v35.29c0,4.887-3.925,8.854-8.758,8.854
			l0,0c-4.834,0-8.758-3.968-8.758-8.854v-35.29C927.969,715.327,931.893,711.359,936.727,711.359z"/>
	</g>
</g>
<g>
	<g>
		<path fill="#7D0000" d="M1025.343,704h4.155c1.018,0,1.844,0.826,1.844,1.845v11.312c0,1.019-0.826,1.843-1.844,1.843h-4.155
			c-1.019,0-1.843-0.824-1.843-1.843v-11.312C1023.5,704.826,1024.324,704,1025.343,704z"/>
		<path fill="#00C600" d="M1027.584,654L1027.584,654c4.834,0,8.758,3.97,8.758,8.855v35.29c0,4.887-3.924,8.854-8.758,8.854l0,0
			c-4.834,0-8.759-3.968-8.759-8.854v-35.29C1018.825,657.969,1022.75,654,1027.584,654z"/>
	</g>
</g>
</svg>
