<?xml version="1.0" encoding="utf-8"?>
<!-- Generator: Adobe Illustrator 16.0.4, SVG Export Plug-In . SVG Version: 6.00 Build 0)  -->
<!DOCTYPE svg PUBLIC "-//W3C//DTD SVG 1.1//EN" "http://www.w3.org/Graphics/SVG/1.1/DTD/svg11.dtd">
<svg version="1.1" id="Layer_1" xmlns="http://www.w3.org/2000/svg" xmlns:xlink="http://www.w3.org/1999/xlink" x="0px" y="0px"
	 width="1280px" height="800px" viewBox="0 0 1280 800" enable-background="new 0 0 1280 800" xml:space="preserve">
<rect x="0" y="0" fill="none" width="1280" height="800"/>
<rect x="0" y="0" fill="#61DFFF" width="1280" height="800"/>
<ellipse vector-effect="non-scaling-stroke" fill="#09FF09" cx="109" cy="816" rx="312" ry="299"/>
<path fill="#09FF09" d="M350.759,645.08l-79.355,54.025c-5.475,3.729-6.893,11.198-3.166,16.673l168.83,247.984
	c3.729,5.475,11.198,6.894,16.673,3.167l79.355-54.026c5.475-3.727,6.893-11.198,3.166-16.673l-168.83-247.984
	C363.703,642.771,356.234,641.353,350.759,645.08z"/>
<g>
	<g>
		<path fill="#7D0000" d="M42.516,750h4.157c1.017,0,1.842,0.826,1.842,1.844v11.313c0,1.018-0.825,1.843-1.842,1.843h-4.157
			c-1.017,0-1.843-0.825-1.843-1.843v-11.313C40.673,750.826,41.499,750,42.516,750z"/>
		<path fill="#00C600" d="M44.758,700L44.758,700c4.833,0,8.757,3.969,8.757,8.855v35.29c0,4.887-3.924,8.854-8.757,8.854l0,0
			c-4.834,0-8.758-3.968-8.758-8.854v-35.29C36,703.969,39.924,700,44.758,700z"/>
	</g>
</g>
<g>
	<g>
		<path fill="#7D0000" d="M116.259,769h4.156c1.017,0,1.843,0.826,1.843,1.844v11.313c0,1.018-0.826,1.843-1.843,1.843h-4.156
			c-1.017,0-1.843-0.825-1.843-1.843v-11.313C114.416,769.826,115.242,769,116.259,769z"/>
		<path fill="#00C600" d="M118.5,719L118.5,719c4.833,0,8.758,3.969,8.758,8.855v35.29c0,4.887-3.925,8.854-8.758,8.854l0,0
			c-4.833,0-8.758-3.968-8.758-8.854v-35.29C109.742,722.969,113.667,719,118.5,719z"/>
	</g>
</g>
<g>
	<g>
		<path fill="#7D0000" d="M89.001,675h4.156c1.017,0,1.843,0.826,1.843,1.844v11.313c0,1.018-0.826,1.843-1.843,1.843h-4.156
			c-1.018,0-1.843-0.825-1.843-1.843v-11.313C87.158,675.826,87.984,675,89.001,675z"/>
		<path fill="#00C600" d="M91.242,625L91.242,625c4.834,0,8.758,3.969,8.758,8.855v35.29c0,4.887-3.924,8.854-8.758,8.854l0,0
			c-4.833,0-8.758-3.968-8.758-8.854v-35.29C82.485,628.969,86.409,625,91.242,625z"/>
	</g>
</g>
<g>
	<g>
		<path fill="#7D0000" d="M31.001,644h4.156c1.017,0,1.843,0.826,1.843,1.844v11.313c0,1.018-0.826,1.843-1.843,1.843h-4.156
			c-1.018,0-1.843-0.825-1.843-1.843v-11.313C29.158,644.826,29.984,644,31.001,644z"/>
		<path fill="#00C600" d="M33.242,594L33.242,594c4.834,0,8.758,3.969,8.758,8.855v35.29c0,4.887-3.924,8.854-8.758,8.854l0,0
			c-4.833,0-8.758-3.968-8.758-8.854v-35.29C24.485,597.969,28.409,594,33.242,594z"/>
	</g>
</g>
<g>
	<g>
		<path fill="#7D0000" d="M133.774,602h4.156c1.017,0,1.843,0.826,1.843,1.844v11.313c0,1.018-0.826,1.843-1.843,1.843h-4.156
			c-1.017,0-1.843-0.825-1.843-1.843v-11.313C131.931,602.826,132.757,602,133.774,602z"/>
		<path fill="#00C600" d="M136.015,552L136.015,552c4.834,0,8.758,3.969,8.758,8.855v35.29c0,4.887-3.924,8.854-8.758,8.854l0,0
			c-4.833,0-8.757-3.968-8.757-8.854v-35.29C127.258,555.969,131.182,552,136.015,552z"/>
	</g>
</g>
<g>
	<g>
		<path fill="#7D0000" d="M170.001,717.5h4.155c1.018,0,1.844,0.826,1.844,1.844v11.313c0,1.018-0.826,1.843-1.844,1.843h-4.155
			c-1.018,0-1.843-0.825-1.843-1.843v-11.313C168.158,718.326,168.984,717.5,170.001,717.5z"/>
		<path fill="#00C600" d="M172.242,667.5L172.242,667.5c4.834,0,8.758,3.969,8.758,8.855v35.29c0,4.887-3.924,8.854-8.758,8.854l0,0
			c-4.833,0-8.758-3.968-8.758-8.854v-35.29C163.485,671.469,167.409,667.5,172.242,667.5z"/>
	</g>
</g>
<g>
	<g>
		<path fill="#7D0000" d="M223.243,652.5h4.155c1.019,0,1.844,0.826,1.844,1.844v11.313c0,1.018-0.825,1.843-1.844,1.843h-4.155
			c-1.018,0-1.844-0.825-1.844-1.843v-11.313C221.4,653.326,222.226,652.5,223.243,652.5z"/>
		<path fill="#00C600" d="M225.485,602.5L225.485,602.5c4.833,0,8.758,3.969,8.758,8.855v35.29c0,4.887-3.925,8.854-8.758,8.854l0,0
			c-4.834,0-8.758-3.968-8.758-8.854v-35.29C216.727,606.469,220.651,602.5,225.485,602.5z"/>
	</g>
</g>
<g>
	<g>
		<path fill="#7D0000" d="M232.001,763.859h4.155c1.018,0,1.844,0.825,1.844,1.843v11.314c0,1.017-0.826,1.843-1.844,1.843h-4.155
			c-1.018,0-1.843-0.826-1.843-1.843v-11.314C230.158,764.684,230.984,763.859,232.001,763.859z"/>
		<path fill="#00C600" d="M234.242,713.859L234.242,713.859c4.834,0,8.758,3.968,8.758,8.855v35.289
			c0,4.888-3.924,8.855-8.758,8.855l0,0c-4.833,0-8.758-3.968-8.758-8.855v-35.289C225.485,717.827,229.409,713.859,234.242,713.859
			z"/>
	</g>
</g>
<g>
	<g>
		<path fill="#7D0000" d="M289.001,685h4.156c1.017,0,1.843,0.826,1.843,1.844v11.313c0,1.018-0.826,1.843-1.843,1.843h-4.156
			c-1.018,0-1.843-0.825-1.843-1.843v-11.313C287.158,685.826,287.984,685,289.001,685z"/>
		<path fill="#00C600" d="M291.242,635L291.242,635c4.834,0,8.758,3.969,8.758,8.855v35.29c0,4.887-3.924,8.854-8.758,8.854l0,0
			c-4.833,0-8.758-3.968-8.758-8.854v-35.29C282.485,638.969,286.409,635,291.242,635z"/>
	</g>
</g>
<g>
	<g>
		<path fill="#7D0000" d="M289.001,685h4.156c1.017,0,1.843,0.826,1.843,1.844v11.313c0,1.018-0.826,1.843-1.843,1.843h-4.156
			c-1.018,0-1.843-0.825-1.843-1.843v-11.313C287.158,685.826,287.984,685,289.001,685z"/>
		<path fill="#00C600" d="M291.242,635L291.242,635c4.834,0,8.758,3.969,8.758,8.855v35.29c0,4.887-3.924,8.854-8.758,8.854l0,0
			c-4.833,0-8.758-3.968-8.758-8.854v-35.29C282.485,638.969,286.409,635,291.242,635z"/>
	</g>
</g>
<g>
	<g>
		<path fill="#7D0000" d="M328.001,769h4.155c1.018,0,1.844,0.826,1.844,1.844v11.313c0,1.018-0.826,1.843-1.844,1.843h-4.155
			c-1.018,0-1.844-0.825-1.844-1.843v-11.313C326.157,769.826,326.984,769,328.001,769z"/>
		<path fill="#00C600" d="M330.241,719L330.241,719c4.834,0,8.759,3.969,8.759,8.855v35.29c0,4.887-3.925,8.854-8.759,8.854l0,0
			c-4.833,0-8.757-3.968-8.757-8.854v-35.29C321.485,722.969,325.408,719,330.241,719z"/>
	</g>
</g>
<g>
	<g>
		<path fill="#7D0000" d="M203.001,559h4.155c1.018,0,1.844,0.826,1.844,1.844v11.313c0,1.018-0.826,1.843-1.844,1.843h-4.155
			c-1.018,0-1.843-0.825-1.843-1.843v-11.313C201.158,559.826,201.984,559,203.001,559z"/>
		<path fill="#00C600" d="M205.242,509L205.242,509c4.834,0,8.758,3.969,8.758,8.855v35.29c0,4.887-3.924,8.854-8.758,8.854l0,0
			c-4.833,0-8.758-3.968-8.758-8.854v-35.29C196.485,512.969,200.409,509,205.242,509z"/>
	</g>
</g>
<g>
	<g>
		<path fill="#7D0000" d="M65.759,550.75h4.156c1.017,0,1.843,0.826,1.843,1.844v11.313c0,1.018-0.826,1.843-1.843,1.843h-4.156
			c-1.017,0-1.843-0.825-1.843-1.843v-11.313C63.916,551.576,64.742,550.75,65.759,550.75z"/>
		<path fill="#00C600" d="M68,500.75L68,500.75c4.833,0,8.758,3.969,8.758,8.855v35.29c0,4.887-3.925,8.854-8.758,8.854l0,0
			c-4.833,0-8.758-3.968-8.758-8.854v-35.29C59.242,504.719,63.167,500.75,68,500.75z"/>
	</g>
</g>
<path fill="#09FF09" d="M1192.072,721.128l-81.807-50.235c-5.645-3.466-13.04-1.698-16.506,3.946L936.774,930.485
	c-3.466,5.645-1.697,13.04,3.946,16.506l81.807,50.235c5.645,3.466,13.04,1.697,16.506-3.946l156.985-255.647
	C1199.484,731.988,1197.716,724.594,1192.072,721.128z"/>
<g>
	<g>
		<path fill="#7D0000" d="M1170,748h4.156c1.018,0,1.844,0.826,1.844,1.844v11.313c0,1.018-0.826,1.843-1.844,1.843H1170
			c-1.017,0-1.843-0.825-1.843-1.843v-11.313C1168.157,748.826,1168.984,748,1170,748z"/>
		<path fill="#00C600" d="M1172.241,698L1172.241,698c4.834,0,8.759,3.969,8.759,8.855v35.29c0,4.887-3.925,8.854-8.759,8.854l0,0
			c-4.833,0-8.757-3.968-8.757-8.854v-35.29C1163.485,701.969,1167.408,698,1172.241,698z"/>
	</g>
</g>
<ellipse vector-effect="non-scaling-stroke" fill="#09FF09" cx="1262.5" cy="790.5" rx="208.5" ry="196.5"/>
<g>
	<g>
		<path fill="#7D0000" d="M1072.143,755.859h4.156c1.018,0,1.843,0.825,1.843,1.843v11.314c0,1.017-0.825,1.843-1.843,1.843h-4.156
			c-1.018,0-1.843-0.826-1.843-1.843v-11.314C1070.3,756.684,1071.125,755.859,1072.143,755.859z"/>
		<path fill="#00C600" d="M1074.385,705.859L1074.385,705.859c4.833,0,8.757,3.968,8.757,8.855v35.289
			c0,4.888-3.924,8.855-8.757,8.855l0,0c-4.834,0-8.758-3.968-8.758-8.855v-35.289
			C1065.627,709.827,1069.551,705.859,1074.385,705.859z"/>
	</g>
</g>
<g>
	<g>
		<path fill="#7D0000" d="M1134,763.859h4.156c1.018,0,1.844,0.825,1.844,1.843v11.314c0,1.017-0.826,1.843-1.844,1.843H1134
			c-1.017,0-1.843-0.826-1.843-1.843v-11.314C1132.157,764.684,1132.984,763.859,1134,763.859z"/>
		<path fill="#00C600" d="M1136.241,713.859L1136.241,713.859c4.834,0,8.759,3.968,8.759,8.855v35.289
			c0,4.888-3.925,8.855-8.759,8.855l0,0c-4.833,0-8.757-3.968-8.757-8.855v-35.289
			C1127.485,717.827,1131.408,713.859,1136.241,713.859z"/>
	</g>
</g>
<g>
	<g>
		<path fill="#7D0000" d="M1178.759,685h4.155c1.018,0,1.844,0.826,1.844,1.844v11.313c0,1.018-0.826,1.843-1.844,1.843h-4.155
			c-1.018,0-1.843-0.825-1.843-1.843v-11.313C1176.916,685.826,1177.741,685,1178.759,685z"/>
		<path fill="#00C600" d="M1181,635L1181,635c4.832,0,8.758,3.969,8.758,8.855v35.29c0,4.887-3.926,8.854-8.758,8.854l0,0
			c-4.834,0-8.759-3.968-8.759-8.854v-35.29C1172.241,638.969,1176.166,635,1181,635z"/>
	</g>
</g>
<g>
	<g>
		<path fill="#7D0000" d="M1129.516,675h4.157c1.017,0,1.842,0.826,1.842,1.844v11.313c0,1.018-0.825,1.843-1.842,1.843h-4.157
			c-1.018,0-1.843-0.825-1.843-1.843v-11.313C1127.673,675.826,1128.498,675,1129.516,675z"/>
		<path fill="#00C600" d="M1131.758,625L1131.758,625c4.833,0,8.757,3.969,8.757,8.855v35.29c0,4.887-3.924,8.854-8.757,8.854l0,0
			c-4.834,0-8.758-3.968-8.758-8.854v-35.29C1123,628.969,1126.924,625,1131.758,625z"/>
	</g>
</g>
<g>
	<g>
		<path fill="#7D0000" d="M1230,631.359h4.156c1.018,0,1.844,0.826,1.844,1.843v11.314c0,1.017-0.826,1.843-1.844,1.843H1230
			c-1.017,0-1.843-0.826-1.843-1.843v-11.314C1228.157,632.185,1228.984,631.359,1230,631.359z"/>
		<path fill="#00C600" d="M1232.241,581.359L1232.241,581.359c4.834,0,8.759,3.968,8.759,8.855v35.29
			c0,4.887-3.925,8.854-8.759,8.854l0,0c-4.833,0-8.757-3.968-8.757-8.854v-35.29
			C1223.485,585.327,1227.408,581.359,1232.241,581.359z"/>
	</g>
</g>
<g>
	<g>
		<path fill="#7D0000" d="M1257,707.5h4.156c1.018,0,1.844,0.826,1.844,1.844v11.313c0,1.018-0.826,1.843-1.844,1.843H1257
			c-1.017,0-1.843-0.825-1.843-1.843v-11.313C1255.157,708.326,1255.984,707.5,1257,707.5z"/>
		<path fill="#00C600" d="M1259.241,657.5L1259.241,657.5c4.834,0,8.759,3.969,8.759,8.855v35.29c0,4.887-3.925,8.854-8.759,8.854
			l0,0c-4.833,0-8.757-3.968-8.757-8.854v-35.29C1250.485,661.469,1254.408,657.5,1259.241,657.5z"/>
	</g>
</g>
<g>
	<g>
		<path fill="#7D0000" d="M1212.486,761.359h4.156c1.017,0,1.843,0.826,1.843,1.843v11.314c0,1.017-0.826,1.843-1.843,1.843h-4.156
			c-1.017,0-1.843-0.826-1.843-1.843v-11.314C1210.643,762.185,1211.469,761.359,1212.486,761.359z"/>
		<path fill="#00C600" d="M1214.727,711.359L1214.727,711.359c4.833,0,8.758,3.968,8.758,8.855v35.29
			c0,4.887-3.925,8.854-8.758,8.854l0,0c-4.834,0-8.758-3.968-8.758-8.854v-35.29
			C1205.969,715.327,1209.893,711.359,1214.727,711.359z"/>
	</g>
</g>
</svg>
