<?xml version="1.0" encoding="utf-8"?>
<!-- Generator: Adobe Illustrator 16.0.4, SVG Export Plug-In . SVG Version: 6.00 Build 0)  -->
<!DOCTYPE svg PUBLIC "-//W3C//DTD SVG 1.1//EN" "http://www.w3.org/Graphics/SVG/1.1/DTD/svg11.dtd">
<svg version="1.1" id="Layer_1" xmlns="http://www.w3.org/2000/svg" xmlns:xlink="http://www.w3.org/1999/xlink" x="0px" y="0px"
	 width="1280px" height="800px" viewBox="0 0 1280 800" enable-background="new 0 0 1280 800" xml:space="preserve">
<rect x="0" y="60" fill="none" width="1280" height="800"/>
<rect x="0" y="60" fill="#353535" width="1280" height="800"/>
<ellipse vector-effect="non-scaling-stroke" fill="#955400" cx="610.125" cy="650.755" rx="380.875" ry="365.005"/>
<path fill="#955400" d="M1192.072,781.129l-81.807-50.235c-5.646-3.466-13.04-1.698-16.506,3.946L936.774,990.485
	c-3.466,5.646-1.697,13.04,3.946,16.506l81.807,50.235c5.646,3.466,13.04,1.697,16.506-3.946l156.985-255.646
	C1199.484,791.988,1197.716,784.594,1192.072,781.129z"/>
<g>
	<g>
		<path fill="#7D0000" d="M1170,808h4.155c1.019,0,1.845,0.826,1.845,1.845v11.312c0,1.019-0.826,1.843-1.845,1.843H1170
			c-1.018,0-1.844-0.824-1.844-1.843v-11.312C1168.156,808.826,1168.984,808,1170,808z"/>
		<path fill="#00C600" d="M1172.24,758L1172.24,758c4.834,0,8.76,3.97,8.76,8.855v35.29c0,4.887-3.926,8.854-8.76,8.854l0,0
			c-4.833,0-8.757-3.968-8.757-8.854v-35.29C1163.485,761.969,1167.407,758,1172.24,758z"/>
	</g>
</g>
<ellipse vector-effect="non-scaling-stroke" fill="#955400" cx="1262.5" cy="850.5" rx="208.5" ry="196.5"/>
<path fill="#955400" d="M350.759,705.08l-79.355,54.025c-5.475,3.729-6.893,11.198-3.166,16.673l168.83,247.984
	c3.729,5.475,11.198,6.894,16.673,3.167l79.355-54.026c5.475-3.727,6.893-11.198,3.166-16.673l-168.83-247.984
	C363.702,702.771,356.234,701.353,350.759,705.08z"/>
<circle vector-effect="non-scaling-stroke" fill="#FFFFFF" cx="1136.75" cy="501.25" r="1.25"/>
<circle vector-effect="non-scaling-stroke" fill="#FFFFFF" cx="1077.25" cy="554.25" r="1.25"/>
<circle vector-effect="non-scaling-stroke" fill="#FFFFFF" cx="1084.25" cy="230.25" r="1.25"/>
<circle vector-effect="non-scaling-stroke" fill="#FFFFFF" cx="932.5" cy="791.75" r="1.25"/>
<circle vector-effect="non-scaling-stroke" fill="#FFFFFF" cx="564.25" cy="712.25" r="1.25"/>
<circle vector-effect="non-scaling-stroke" fill="#FFFFFF" cx="296.75" cy="509.25" r="1.25"/>
<circle vector-effect="non-scaling-stroke" fill="#FFFFFF" cx="67.25" cy="195.25" r="1.25"/>
<circle vector-effect="non-scaling-stroke" fill="#FFFFFF" cx="93.75" cy="420.25" r="1.25"/>
<circle vector-effect="non-scaling-stroke" fill="#FFFFFF" cx="146.25" cy="540" r="1.25"/>
<circle vector-effect="non-scaling-stroke" fill="#FFFFFF" cx="463.25" cy="313.75" r="1.25"/>
<circle vector-effect="non-scaling-stroke" fill="#FFFFFF" cx="651.75" cy="344.25" r="1.25"/>
<circle vector-effect="non-scaling-stroke" fill="#FFFFFF" cx="931.25" cy="271.75" r="1.25"/>
<circle vector-effect="non-scaling-stroke" fill="#FFFFFF" cx="385.75" cy="221.25" r="1.25"/>
<circle vector-effect="non-scaling-stroke" fill="#FFFFFF" cx="615.25" cy="269.25" r="1.25"/>
<circle vector-effect="non-scaling-stroke" fill="#FFFFFF" cx="796.75" cy="227.75" r="1.25"/>
<circle vector-effect="non-scaling-stroke" fill="#FFFFFF" cx="321.25" cy="360.5" r="1.25"/>
<circle vector-effect="non-scaling-stroke" fill="#FFFFFF" cx="905.75" cy="554.25" r="1.25"/>
<circle vector-effect="non-scaling-stroke" fill="#FFFFFF" cx="935" cy="645.25" r="1.25"/>
<path fill="#09FF09" d="M1192.072,781.129l-81.807-50.235c-5.646-3.466-13.04-1.698-16.506,3.946L936.774,990.485
	c-3.466,5.646-1.697,13.04,3.946,16.506l81.807,50.235c5.646,3.466,13.04,1.697,16.506-3.946l156.985-255.646
	C1199.484,791.988,1197.716,784.594,1192.072,781.129z"/>
<g>
	<g>
		<path fill="#7D0000" d="M1170,808h4.155c1.019,0,1.845,0.826,1.845,1.845v11.312c0,1.019-0.826,1.843-1.845,1.843H1170
			c-1.018,0-1.844-0.824-1.844-1.843v-11.312C1168.156,808.826,1168.984,808,1170,808z"/>
		<path fill="#00C600" d="M1172.24,758L1172.24,758c4.834,0,8.76,3.97,8.76,8.855v35.29c0,4.887-3.926,8.854-8.76,8.854l0,0
			c-4.833,0-8.757-3.968-8.757-8.854v-35.29C1163.485,761.969,1167.407,758,1172.24,758z"/>
	</g>
</g>
<ellipse vector-effect="non-scaling-stroke" fill="#955400" cx="1287.5" cy="825.5" rx="208.5" ry="196.5"/>
<ellipse vector-effect="non-scaling-stroke" fill="#955400" cx="1100.037" cy="870.359" rx="208.5" ry="196.5"/>
<path fill="#955400" d="M487.115,551.58L306.78,467.782c-11.876-5.518-25.995-0.355-31.516,11.521L35.212,995.905
	c-5.52,11.875-0.357,25.997,11.519,31.517l180.335,83.798c11.876,5.518,25.997,0.355,31.517-11.521l240.053-516.604
	C504.153,571.22,498.99,557.098,487.115,551.58z"/>
<path fill="#955400" d="M895.869,440.893l-173.977,96.304c-11.457,6.342-15.61,20.792-9.27,32.249l275.881,498.395
	c6.342,11.457,20.793,15.608,32.25,9.268l173.977-96.304c11.457-6.342,15.61-20.792,9.27-32.249L928.119,450.161
	C921.779,438.704,907.326,434.552,895.869,440.893z"/>
<g>
	<g>
		<path fill="#7D0000" d="M-39.999,843.5h4.156c1.017,0,1.843,0.826,1.843,1.845v11.312c0,1.019-0.826,1.843-1.843,1.843h-4.156
			c-1.019,0-1.843-0.824-1.843-1.843v-11.312C-41.842,844.326-41.016,843.5-39.999,843.5z"/>
		<path fill="#00C600" d="M-37.758,793.5L-37.758,793.5c4.834,0,8.758,3.97,8.758,8.855v35.29c0,4.887-3.924,8.854-8.758,8.854l0,0
			c-4.833,0-8.759-3.968-8.759-8.854v-35.29C-46.515,797.469-42.591,793.5-37.758,793.5z"/>
	</g>
</g>
<path fill="#515151" d="M345.594,625.5h6.804c6.125,0,11.098,4.975,11.098,11.1v110.304c0,6.125-4.973,11.099-11.098,11.099h-6.804
	c-6.125,0-11.1-4.974-11.1-11.099V636.598C334.494,630.473,339.469,625.5,345.594,625.5z"/>
<path fill="#515151" d="M879.098,626.5h6.804c6.125,0,11.1,4.975,11.1,11.1v110.304c0,6.125-4.975,11.099-11.1,11.099h-6.804
	c-6.125,0-11.098-4.974-11.098-11.099V637.598C868,631.473,872.973,626.5,879.098,626.5z"/>
<path fill="#353535" d="M1051.601,570.516l15.216-7.433c23.337-11.401,51.539-1.712,62.939,21.625l21.896,44.819
	c11.4,23.336,1.71,51.539-21.627,62.939l-15.216,7.434c-23.336,11.401-51.538,1.71-62.939-21.627l-21.896-44.819
	C1018.573,610.119,1028.265,581.919,1051.601,570.516z"/>
<path fill="#353535" d="M1179.418,601.799L1179.418,601.799c13.676,17.248,10.773,42.354-6.475,56.028l-50.333,39.907
	c-17.249,13.675-42.354,10.775-56.031-6.474l0,0c-13.675-17.248-10.772-42.354,6.476-56.03l50.333-39.907
	C1140.637,581.647,1165.741,584.55,1179.418,601.799z"/>
<path fill="#353535" d="M1188.93,600.135L1188.93,600.135c13.054,17.724,9.262,42.711-8.462,55.764l-51.723,38.092
	c-17.724,13.055-42.711,9.263-55.765-8.463l0,0c-13.053-17.724-9.261-42.711,8.463-55.764l51.723-38.092
	C1150.89,578.618,1175.877,582.41,1188.93,600.135z"/>
<path fill="#515151" d="M323.586,231.385h587.789c9.438,0,17.102,7.661,17.102,17.101v408.272c0,9.438-7.663,17.101-17.102,17.101
	H323.586c-9.439,0-17.103-7.663-17.103-17.101V248.486C306.485,239.048,314.147,231.385,323.586,231.385z"/>
<path fill="#7B7B7B" d="M342.115,249.087h550.729c8.701,0,15.765,7.064,15.765,15.767v370.139c0,8.7-7.062,15.766-15.765,15.766
	H342.115c-8.7,0-15.764-7.064-15.764-15.766v-370.14C326.352,256.151,333.414,249.087,342.115,249.087z"/>
<rect x="0" y="0" fill="#353535" width="1280" height="61"/>
</svg>
