<?xml version="1.0" encoding="utf-8"?>
<!-- Generator: Adobe Illustrator 16.0.4, SVG Export Plug-In . SVG Version: 6.00 Build 0)  -->
<!DOCTYPE svg PUBLIC "-//W3C//DTD SVG 1.1//EN" "http://www.w3.org/Graphics/SVG/1.1/DTD/svg11.dtd">
<svg version="1.1" id="Layer_1" xmlns="http://www.w3.org/2000/svg" xmlns:xlink="http://www.w3.org/1999/xlink" x="0px" y="0px"
	 width="1280px" height="800px" viewBox="0 0 1280 800" enable-background="new 0 0 1280 800" xml:space="preserve">
<rect x="0" y="60" fill="none" width="1280" height="800"/>
<rect x="0" y="60" fill="#61DFFF" width="1280" height="800"/>
<path fill="#09FF09" d="M1192.072,781.129l-81.807-50.235c-5.646-3.466-13.04-1.698-16.506,3.946L936.774,990.485
	c-3.466,5.646-1.697,13.04,3.946,16.506l81.807,50.235c5.646,3.466,13.04,1.697,16.506-3.946l156.985-255.646
	C1199.484,791.988,1197.716,784.594,1192.072,781.129z"/>
<g>
	<g>
		<path fill="#7D0000" d="M1170,808h4.155c1.019,0,1.845,0.826,1.845,1.845v11.312c0,1.019-0.826,1.843-1.845,1.843H1170
			c-1.018,0-1.844-0.824-1.844-1.843v-11.312C1168.156,808.826,1168.984,808,1170,808z"/>
		<path fill="#00C600" d="M1172.24,758L1172.24,758c4.834,0,8.76,3.97,8.76,8.855v35.29c0,4.887-3.926,8.854-8.76,8.854l0,0
			c-4.833,0-8.757-3.968-8.757-8.854v-35.29C1163.485,761.969,1167.407,758,1172.24,758z"/>
	</g>
</g>
<ellipse vector-effect="non-scaling-stroke" fill="#09FF09" cx="1287.5" cy="825.5" rx="208.5" ry="196.5"/>
<ellipse vector-effect="non-scaling-stroke" fill="#09FF09" cx="1100.037" cy="870.359" rx="208.5" ry="196.5"/>
<ellipse vector-effect="non-scaling-stroke" fill="#09FF09" cx="610.125" cy="650.755" rx="380.875" ry="365.005"/>
<path fill="#09FF09" d="M487.115,551.58L306.78,467.782c-11.876-5.518-25.995-0.355-31.516,11.521L35.212,995.905
	c-5.52,11.875-0.357,25.997,11.519,31.517l180.335,83.798c11.876,5.518,25.997,0.355,31.517-11.521l240.053-516.604
	C504.153,571.22,498.99,557.098,487.115,551.58z"/>
<path fill="#09FF09" d="M895.869,440.893l-173.977,96.304c-11.457,6.342-15.61,20.792-9.27,32.249l275.881,498.395
	c6.342,11.457,20.793,15.608,32.25,9.268l173.977-96.304c11.457-6.342,15.61-20.792,9.27-32.249L928.119,450.161
	C921.779,438.704,907.326,434.552,895.869,440.893z"/>
<g>
	<g>
		<path fill="#7D0000" d="M-39.999,843.5h4.156c1.017,0,1.843,0.826,1.843,1.845v11.312c0,1.019-0.826,1.843-1.843,1.843h-4.156
			c-1.019,0-1.843-0.824-1.843-1.843v-11.312C-41.842,844.326-41.016,843.5-39.999,843.5z"/>
		<path fill="#00C600" d="M-37.758,793.5L-37.758,793.5c4.834,0,8.758,3.97,8.758,8.855v35.29c0,4.887-3.924,8.854-8.758,8.854l0,0
			c-4.833,0-8.759-3.968-8.759-8.854v-35.29C-46.515,797.469-42.591,793.5-37.758,793.5z"/>
	</g>
</g>
<g>
	<g>
		<path fill="#7D0000" d="M1231.986,820.438h4.156c1.017,0,1.843,0.825,1.843,1.842v11.315c0,1.017-0.826,1.843-1.843,1.843h-4.156
			c-1.017,0-1.843-0.826-1.843-1.843V822.28C1230.143,821.263,1230.969,820.438,1231.986,820.438z"/>
		<path fill="#00C600" d="M1234.227,770.438L1234.227,770.438c4.833,0,8.758,3.967,8.758,8.854v35.288
			c0,4.89-3.925,8.856-8.758,8.856l0,0c-4.834,0-8.758-3.968-8.758-8.856v-35.288
			C1225.469,774.405,1229.393,770.438,1234.227,770.438z"/>
	</g>
</g>
<g>
	<g>
		<path fill="#7D0000" d="M768.516,823.859h4.157c1.017,0,1.842,0.825,1.842,1.843v11.314c0,1.017-0.825,1.843-1.842,1.843h-4.157
			c-1.019,0-1.843-0.826-1.843-1.843v-11.314C766.673,824.684,767.497,823.859,768.516,823.859z"/>
		<path fill="#00C600" d="M770.758,773.859L770.758,773.859c4.833,0,8.757,3.968,8.757,8.855v35.289
			c0,4.888-3.924,8.854-8.757,8.854l0,0c-4.834,0-8.758-3.968-8.758-8.854v-35.289C762,777.827,765.924,773.859,770.758,773.859z"/>
	</g>
</g>
<g>
	<g>
		<path fill="#7D0000" d="M210.001,811h4.154c1.019,0,1.845,0.826,1.845,1.845v11.312c0,1.019-0.826,1.843-1.845,1.843h-4.154
			c-1.019,0-1.843-0.824-1.843-1.843v-11.312C208.158,811.826,208.984,811,210.001,811z"/>
		<path fill="#00C600" d="M212.242,761L212.242,761c4.834,0,8.758,3.97,8.758,8.855v35.29c0,4.887-3.924,8.854-8.758,8.854l0,0
			c-4.833,0-8.759-3.968-8.759-8.854v-35.29C203.485,764.969,207.409,761,212.242,761z"/>
	</g>
</g>
<g>
	<g>
		<path fill="#7D0000" d="M273.44,700.757h4.156c1.017,0,1.843,0.824,1.843,1.843v11.312c0,1.019-0.826,1.845-1.843,1.845h-4.156
			c-1.017,0-1.843-0.826-1.843-1.845v-11.312C271.597,701.581,272.423,700.757,273.44,700.757z"/>
		<path fill="#00C600" d="M275.681,650.757L275.681,650.757c4.834,0,8.758,3.968,8.758,8.854v35.29c0,4.887-3.924,8.855-8.758,8.855
			l0,0c-4.833,0-8.758-3.97-8.758-8.855v-35.29C266.923,654.723,270.848,650.757,275.681,650.757z"/>
	</g>
</g>
<g>
	<g>
		<path fill="#7D0000" d="M377.259,830h4.154c1.019,0,1.845,0.826,1.845,1.845v11.312c0,1.019-0.826,1.843-1.845,1.843h-4.154
			c-1.019,0-1.845-0.824-1.845-1.843v-11.312C375.414,830.826,376.24,830,377.259,830z"/>
		<path fill="#00C600" d="M379.5,780L379.5,780c4.831,0,8.758,3.97,8.758,8.855v35.29c0,4.887-3.927,8.854-8.758,8.854l0,0
			c-4.835,0-8.76-3.968-8.76-8.854v-35.29C370.74,783.969,374.665,780,379.5,780z"/>
	</g>
</g>
<g>
	<g>
		<path fill="#7D0000" d="M1009.274,735h4.156c1.017,0,1.843,0.826,1.843,1.845v11.312c0,1.019-0.826,1.843-1.843,1.843h-4.156
			c-1.017,0-1.843-0.824-1.843-1.843v-11.312C1007.431,735.826,1008.257,735,1009.274,735z"/>
		<path fill="#00C600" d="M1011.515,685L1011.515,685c4.834,0,8.758,3.97,8.758,8.855v35.29c0,4.887-3.924,8.854-8.758,8.854l0,0
			c-4.833,0-8.757-3.968-8.757-8.854v-35.29C1002.758,688.969,1006.682,685,1011.515,685z"/>
	</g>
</g>
<g>
	<g>
		<path fill="#7D0000" d="M447,750h4.155c1.019,0,1.845,0.826,1.845,1.845v11.312c0,1.019-0.826,1.843-1.845,1.843H447
			c-1.018,0-1.844-0.824-1.844-1.843v-11.312C445.156,750.826,445.984,750,447,750z"/>
		<path fill="#00C600" d="M449.24,700L449.24,700c4.834,0,8.76,3.97,8.76,8.855v35.29c0,4.887-3.926,8.854-8.76,8.854l0,0
			c-4.833,0-8.757-3.968-8.757-8.854v-35.29C440.485,703.969,444.407,700,449.24,700z"/>
	</g>
</g>
<g>
	<g>
		<path fill="#7D0000" d="M824,735h4.155c1.019,0,1.845,0.826,1.845,1.845v11.312c0,1.019-0.826,1.843-1.845,1.843H824
			c-1.018,0-1.844-0.824-1.844-1.843v-11.312C822.156,735.826,822.984,735,824,735z"/>
		<path fill="#00C600" d="M826.24,685L826.24,685c4.834,0,8.76,3.97,8.76,8.855v35.29c0,4.887-3.926,8.854-8.76,8.854l0,0
			c-4.833,0-8.757-3.968-8.757-8.854v-35.29C817.485,688.969,821.407,685,826.24,685z"/>
	</g>
</g>
<g>
	<g>
		<path fill="#7D0000" d="M1200.056,719.257h4.157c1.017,0,1.842,0.823,1.842,1.842v11.313c0,1.019-0.825,1.845-1.842,1.845h-4.157
			c-1.019,0-1.842-0.826-1.842-1.845v-11.313C1198.214,720.08,1199.037,719.257,1200.056,719.257z"/>
		<path fill="#00C600" d="M1202.298,669.257L1202.298,669.257c4.833,0,8.757,3.968,8.757,8.854v35.289
			c0,4.888-3.924,8.856-8.757,8.856l0,0c-4.834,0-8.76-3.97-8.76-8.856V678.11C1193.538,673.223,1197.464,669.257,1202.298,669.257z
			"/>
	</g>
</g>
<g>
	<g>
		<path fill="#7D0000" d="M1120.759,791.359h4.155c1.018,0,1.844,0.825,1.844,1.843v11.314c0,1.017-0.826,1.843-1.844,1.843h-4.155
			c-1.019,0-1.843-0.826-1.843-1.843v-11.314C1118.916,792.184,1119.74,791.359,1120.759,791.359z"/>
		<path fill="#00C600" d="M1123,741.359L1123,741.359c4.832,0,8.758,3.968,8.758,8.855v35.289c0,4.888-3.926,8.854-8.758,8.854l0,0
			c-4.834,0-8.76-3.968-8.76-8.854v-35.289C1114.24,745.327,1118.166,741.359,1123,741.359z"/>
	</g>
</g>
<g>
	<g>
		<path fill="#7D0000" d="M980,830h4.155c1.019,0,1.845,0.826,1.845,1.845v11.312c0,1.019-0.826,1.843-1.845,1.843H980
			c-1.018,0-1.844-0.824-1.844-1.843v-11.312C978.156,830.826,978.984,830,980,830z"/>
		<path fill="#00C600" d="M982.24,780L982.24,780c4.834,0,8.76,3.97,8.76,8.855v35.29c0,4.887-3.926,8.854-8.76,8.854l0,0
			c-4.833,0-8.757-3.968-8.757-8.854v-35.29C973.485,783.969,977.407,780,982.24,780z"/>
	</g>
</g>
<path fill="#515151" d="M345.594,625.5h6.804c6.125,0,11.098,4.975,11.098,11.1v110.304c0,6.125-4.973,11.099-11.098,11.099h-6.804
	c-6.125,0-11.1-4.974-11.1-11.099V636.598C334.494,630.473,339.469,625.5,345.594,625.5z"/>
<path fill="#515151" d="M879.098,626.5h6.804c6.125,0,11.1,4.975,11.1,11.1v110.304c0,6.125-4.975,11.099-11.1,11.099h-6.804
	c-6.125,0-11.098-4.974-11.098-11.099V637.598C868,631.473,872.973,626.5,879.098,626.5z"/>
<path fill="#515151" d="M323.586,231.385h587.789c9.438,0,17.102,7.661,17.102,17.101v408.272c0,9.438-7.663,17.101-17.102,17.101
	H323.586c-9.439,0-17.103-7.663-17.103-17.101V248.486C306.485,239.048,314.147,231.385,323.586,231.385z"/>
<path fill="#7B7B7B" d="M342.115,249.087h550.729c8.701,0,15.765,7.064,15.765,15.767v370.139c0,8.7-7.062,15.766-15.765,15.766
	H342.115c-8.7,0-15.764-7.064-15.764-15.766v-370.14C326.352,256.151,333.414,249.087,342.115,249.087z"/>
<path fill="#61DFFF" d="M1051.601,570.516l15.216-7.433c23.337-11.401,51.539-1.712,62.939,21.625l21.896,44.819
	c11.4,23.336,1.71,51.539-21.627,62.939l-15.216,7.434c-23.336,11.401-51.538,1.71-62.939-21.627l-21.896-44.819
	C1018.573,610.119,1028.265,581.919,1051.601,570.516z"/>
<path fill="#61DFFF" d="M1322.406,462.135l15.218-7.435c23.336-11.399,51.537-1.71,62.938,21.626l21.896,44.82
	c11.4,23.336,1.711,51.539-21.625,62.939l-15.218,7.434c-23.337,11.4-51.539,1.71-62.938-21.627l-21.896-44.819
	C1289.38,501.738,1299.07,473.536,1322.406,462.135z"/>
<path fill="#61DFFF" d="M1179.418,601.799L1179.418,601.799c13.676,17.248,10.773,42.354-6.475,56.028l-50.333,39.907
	c-17.249,13.675-42.354,10.775-56.031-6.474l0,0c-13.675-17.248-10.772-42.354,6.476-56.03l50.333-39.907
	C1140.637,581.647,1165.741,584.55,1179.418,601.799z"/>
<path fill="#61DFFF" d="M1188.93,600.135L1188.93,600.135c13.054,17.724,9.262,42.711-8.462,55.764l-51.723,38.092
	c-17.724,13.055-42.711,9.263-55.765-8.463l0,0c-13.053-17.724-9.261-42.711,8.463-55.764l51.723-38.092
	C1150.89,578.618,1175.877,582.41,1188.93,600.135z"/>
<rect x="0" y="0" fill="#61DFFF" width="1280" height="61"/>
</svg>
